<?xml version="1.0" standalone="no"?>
<!DOCTYPE svg PUBLIC "-//W3C//DTD SVG 20010904//EN"
 "http://www.w3.org/TR/2001/REC-SVG-20010904/DTD/svg10.dtd">
<svg version="1.0" xmlns="http://www.w3.org/2000/svg"
 width="260.000000pt" height="260.000000pt" viewBox="0 0 260.000000 260.000000"
 preserveAspectRatio="xMidYMid meet">
<metadata>
Created by potrace 1.14, written by Peter Selinger 2001-2017
</metadata>
<g transform="translate(0.000000,260.000000) scale(0.100000,-0.100000)"
fill="#000000" stroke="none">
<path d="M1033 2427 c-18 -7 -44 -28 -57 -47 -14 -19 -29 -39 -34 -45 -7 -9
-8 -36 -4 -102 1 -13 8 -23 15 -23 8 0 22 -9 33 -21 14 -15 15 -22 6 -28 -7
-4 -10 -14 -7 -23 4 -9 -4 -21 -20 -32 -15 -10 -24 -23 -22 -30 3 -7 1 -19 -4
-27 -8 -12 -11 -12 -22 2 -6 9 -17 14 -24 12 -6 -2 -25 3 -42 11 -16 9 -41 16
-55 16 -35 0 -53 31 -33 58 7 9 -7 12 -65 12 -68 0 -76 -2 -99 -27 -62 -70
-162 -308 -175 -417 -3 -28 -7 -61 -10 -73 -5 -28 13 -30 56 -8 21 11 30 12
30 4 0 -18 12 -2 15 18 2 24 23 73 31 73 3 0 4 -9 1 -20 -6 -24 10 -37 26 -21
9 9 8 17 -1 31 -11 18 -10 22 10 29 13 5 29 6 36 4 6 -3 12 0 12 7 0 7 8 10
20 7 11 -3 23 -1 26 4 3 6 15 7 27 4 19 -5 20 -5 5 5 -26 16 -24 60 2 60 11 0
20 -4 20 -9 0 -5 9 -13 20 -16 11 -4 18 -11 15 -16 -10 -14 18 -10 43 6 19 14
24 14 47 -1 14 -9 25 -12 25 -8 0 5 4 2 10 -6 8 -12 10 -12 16 3 3 9 14 17 24
17 11 0 22 5 25 10 3 6 16 10 28 10 13 0 17 -3 10 -8 -6 -4 14 -7 45 -8 64 0
114 -20 91 -35 -12 -8 -12 -10 0 -18 11 -7 10 -10 -5 -14 -17 -4 -17 -5 2 -6
12 0 25 -8 28 -17 9 -22 -3 -32 -14 -14 -7 10 -10 11 -10 3 0 -7 -8 -13 -17
-14 -13 0 -12 -3 6 -10 15 -6 21 -14 17 -24 -3 -9 1 -18 9 -21 19 -8 19 -16
-2 -40 -31 -35 -54 -82 -35 -70 5 3 16 -4 25 -15 12 -14 13 -19 4 -19 -7 0
-22 -6 -33 -14 -18 -14 -18 -15 6 -25 18 -7 20 -10 7 -10 -10 -1 -29 -13 -42
-27 -13 -14 -28 -23 -33 -20 -6 3 -13 -1 -16 -10 -5 -13 -2 -15 14 -11 l20 5
-20 -28 c-20 -29 -26 -45 -12 -37 4 3 16 1 27 -4 17 -7 17 -8 -7 -8 -16 -1
-28 -5 -28 -11 0 -19 -3 -25 -19 -38 -14 -11 -14 -12 4 -10 12 2 20 11 20 23
0 12 7 20 18 21 12 2 13 1 2 -3 -8 -2 -13 -9 -10 -13 3 -5 -1 -20 -10 -33 -8
-13 -13 -26 -10 -29 3 -3 -1 -11 -9 -17 -10 -8 -16 -9 -21 -1 -3 5 2 10 12 11
12 0 9 4 -9 11 -16 5 -28 16 -28 23 0 23 -20 28 -34 10 -12 -17 -13 -17 -19
-1 -4 10 -5 22 -1 27 7 12 -23 11 -46 -1 -15 -8 -18 -18 -14 -48 2 -20 9 -38
14 -40 19 -7 55 -41 43 -42 -20 0 -15 -17 7 -23 27 -7 25 -27 -2 -27 -16 0
-19 -3 -10 -9 10 -6 9 -13 -7 -32 -19 -23 -20 -23 -38 -6 -10 9 -31 27 -47 39
-16 12 -35 36 -42 54 -8 19 -28 41 -45 50 -30 15 -32 15 -46 -5 -8 -12 -20
-21 -27 -21 -7 0 -25 -9 -39 -20 -31 -25 -55 -25 -74 -2 -8 9 -3 -4 11 -30 25
-45 26 -53 27 -230 1 -101 4 -171 6 -157 4 25 6 26 59 23 37 -3 62 1 75 10 24
16 59 10 59 -11 0 -13 3 -13 15 -3 22 18 31 4 12 -18 -10 -10 -17 -23 -17 -29
0 -10 500 -25 528 -15 6 2 12 13 12 23 0 10 5 19 10 19 6 0 10 -5 10 -11 0 -5
4 -8 10 -4 5 3 1 14 -10 25 -31 31 -46 128 -26 173 5 10 4 17 -3 17 -6 0 -11
-8 -11 -17 0 -23 -18 -4 -20 22 -10 92 10 133 51 107 13 -9 19 -8 22 1 2 7 5
-46 6 -116 1 -71 5 -135 8 -144 3 -8 0 -19 -8 -25 -12 -8 -11 -9 1 -5 8 2 31
-7 50 -20 19 -12 45 -23 57 -23 12 0 25 -4 28 -10 4 -6 107 -10 276 -10 149 0
268 4 265 8 -2 4 -6 58 -7 120 -1 62 -7 112 -12 112 -5 0 -6 11 -3 25 7 27 -8
35 -18 9 -4 -11 -13 -14 -27 -11 -15 4 -23 -1 -32 -20 -9 -21 -53 -53 -72 -53
-4 0 20 26 52 57 118 117 117 115 121 233 4 108 13 129 53 130 9 0 28 17 41
38 l25 38 -22 27 c-12 16 -34 29 -51 31 -16 2 -32 4 -36 5 -5 0 -8 42 -8 91 0
59 -4 90 -11 90 -8 0 -10 -26 -6 -85 5 -84 5 -86 -16 -79 -12 4 -35 8 -52 10
-16 1 -43 7 -60 14 -26 10 -28 13 -12 21 9 6 17 21 17 34 0 14 6 25 13 25 7 1
4 6 -7 15 -17 13 -17 14 3 36 12 13 21 27 21 32 0 13 -59 -32 -110 -83 -47
-47 -133 -95 -151 -85 -5 4 -7 10 -4 15 3 5 1 11 -3 14 -11 7 -74 -48 -66 -57
4 -4 2 -12 -4 -20 -6 -7 -9 -23 -5 -35 5 -20 2 -21 -26 -18 -18 2 -31 -1 -31
-8 0 -6 -4 -4 -9 4 -6 8 -7 18 -5 22 3 4 -5 9 -18 9 -13 1 -1 7 27 14 28 7 42
14 33 14 -10 1 -18 6 -18 12 0 6 9 8 20 4 11 -3 20 -2 20 3 0 5 -19 13 -42 17
-35 6 -39 8 -23 15 11 4 34 6 50 3 l30 -4 -30 14 c-16 8 -33 13 -36 11 -4 -2
-12 2 -17 9 -9 10 -3 12 26 10 37 -4 37 -4 12 11 -16 10 -19 16 -10 16 11 0
10 3 -4 12 -16 9 -32 12 -95 17 -24 2 -3 15 52 33 29 10 40 16 25 13 -44 -8
-46 19 -3 43 15 8 16 11 5 12 -9 0 -21 -5 -27 -11 -7 -7 -19 -9 -28 -5 -15 5
-14 9 6 26 13 11 19 19 12 20 -6 0 -15 -5 -18 -10 -4 -6 -11 -7 -17 -4 -7 4
-4 10 6 16 9 5 14 14 10 19 -3 6 10 7 35 3 28 -4 41 -3 41 5 0 7 -9 9 -26 5
-20 -5 -25 -4 -19 5 4 8 -1 18 -14 27 -12 9 -19 19 -16 24 3 5 16 -2 30 -16
13 -13 32 -24 42 -24 15 0 16 2 3 10 -12 8 -12 10 3 16 14 5 15 9 6 20 -10 12
-1 14 54 14 36 0 68 -4 71 -8 3 -5 30 -5 60 -2 31 3 56 2 56 -2 0 -7 -41 -13
-63 -9 -5 1 -6 -3 -2 -9 8 -13 152 -13 160 0 4 6 -12 10 -41 10 -29 0 -44 4
-39 9 16 14 82 20 94 8 9 -9 17 -8 31 1 11 6 28 12 39 12 11 0 27 7 35 16 15
14 16 5 16 -101 0 -78 3 -114 10 -110 6 4 9 25 6 48 -3 23 -6 101 -7 172 -1
72 -4 118 -6 103 -4 -23 -8 -26 -39 -23 -19 1 -36 -1 -39 -5 -2 -4 -20 -6 -40
-5 -19 0 -35 -3 -35 -7 0 -3 -8 -7 -17 -7 -112 -4 -144 4 -128 29 5 8 10 8 20
0 8 -7 14 -7 17 -1 1 6 20 11 41 13 25 1 36 6 33 14 -3 7 0 15 7 18 7 2 3 5
-8 5 -16 1 -17 3 -6 10 8 5 21 7 28 4 8 -3 25 0 38 7 13 7 35 10 50 8 17 -4
23 -2 17 4 -13 13 21 48 46 48 15 0 17 -7 14 -42 -3 -24 -1 -40 2 -37 9 8 15
80 8 97 -4 11 -6 11 -13 0 -6 -9 -9 -9 -9 -1 0 6 5 15 10 18 6 3 10 15 10 26
0 21 -12 23 -115 19 -33 -1 -63 -7 -67 -13 -3 -5 -19 -16 -35 -23 l-28 -12 29
-1 c34 -1 30 -11 -6 -15 -13 -1 -30 -6 -38 -11 -20 -13 -38 -16 -83 -16 -23 1
-36 -3 -32 -9 3 -6 -4 -10 -17 -10 -18 0 -20 -2 -8 -10 12 -8 12 -10 -5 -10
-16 0 -17 -2 -6 -9 10 -6 -3 -11 -42 -16 -31 -4 -55 -11 -52 -15 3 -5 -16 -10
-43 -12 -26 -3 -56 -8 -67 -13 -12 -5 -17 -5 -12 1 5 5 23 15 40 22 31 12 31
12 4 8 -20 -2 -25 0 -17 9 5 6 7 14 5 17 -3 3 6 3 20 0 20 -3 24 -1 19 12 -3
9 -13 16 -21 16 -9 0 -13 6 -10 14 3 8 -1 17 -9 20 -20 8 -18 36 4 37 15 0 15
1 -1 8 -16 6 -16 9 -5 18 7 6 22 13 33 15 11 2 -13 4 -52 4 -49 -1 -74 -5 -78
-13 -2 -7 -10 -13 -17 -13 -10 0 -10 2 0 9 25 16 -7 20 -100 12 -9 0 -24 -8
-33 -18 -14 -14 -18 -14 -26 -2 -13 21 -11 26 17 48 15 12 41 21 59 21 24 0
37 7 49 25 9 14 23 25 31 25 8 0 15 5 15 11 0 6 -6 9 -14 6 -8 -3 -20 1 -27 9
-11 14 -13 14 -21 0 -5 -9 -16 -16 -25 -16 -9 0 -31 -12 -50 -26 -18 -14 -45
-26 -60 -27 -30 -3 -73 31 -73 55 0 9 -7 32 -15 52 -15 35 -14 39 10 81 27 49
26 49 -22 32z m7 -221 c0 -3 -4 -8 -10 -11 -5 -3 -10 -1 -10 4 0 6 5 11 10 11
6 0 10 -2 10 -4z m90 -76 c0 -5 -2 -10 -4 -10 -3 0 -8 5 -11 10 -3 6 -1 10 4
10 6 0 11 -4 11 -10z m160 0 c0 -5 -2 -10 -4 -10 -3 0 -8 5 -11 10 -3 6 -1 10
4 10 6 0 11 -4 11 -10z m-666 -32 c-3 -4 8 -16 25 -26 28 -17 29 -19 10 -30
-21 -13 -45 -5 -68 22 -10 12 -9 20 5 41 12 19 19 23 25 14 4 -7 6 -17 3 -21z
m41 4 c-3 -3 -11 0 -18 7 -9 10 -8 11 6 5 10 -3 15 -9 12 -12z m56 10 c0 7 5
3 11 -8 9 -21 35 -32 123 -54 50 -12 112 -49 98 -58 -6 -4 8 -7 32 -8 42 -1
105 -29 112 -50 5 -15 -54 -26 -75 -14 -9 5 -52 21 -96 34 -43 14 -92 36 -110
48 -17 13 -49 30 -71 37 -44 15 -65 29 -65 43 0 5 7 2 16 -6 8 -9 20 -16 27
-16 6 0 4 5 -4 13 -8 6 -22 21 -29 31 -14 18 -14 19 8 7 17 -9 22 -9 23 1z
m414 -12 c-3 -5 -11 -10 -16 -10 -6 0 -7 5 -4 10 3 6 11 10 16 10 6 0 7 -4 4
-10z m199 -5 c4 -10 -1 -15 -14 -15 -11 0 -20 6 -21 13 0 10 -2 10 -6 0 -2 -7
-11 -13 -19 -13 -8 0 -11 6 -8 15 4 8 18 15 34 15 16 0 30 -7 34 -15z m568 -6
c-9 -10 -22 -19 -28 -19 -19 0 -37 -27 -22 -33 7 -2 -2 -12 -22 -21 -19 -10
-55 -28 -80 -41 -25 -13 -52 -24 -61 -25 -9 0 -43 -11 -75 -25 -33 -14 -50
-19 -40 -12 10 6 31 23 45 35 l26 24 -33 -22 c-35 -23 -112 -39 -112 -23 0 15
91 54 128 55 19 1 28 4 21 9 -14 9 49 43 100 54 l35 7 -30 -27 c-26 -23 -24
-23 16 5 82 57 115 76 132 77 16 2 16 0 0 -18z m13 -29 c-10 -11 -25 -20 -34
-20 -10 0 -6 7 12 18 15 9 27 21 27 26 0 5 3 6 7 3 3 -4 -2 -16 -12 -27z
m-580 -10 c12 10 15 10 15 -3 0 -23 -11 -26 -50 -17 -19 4 -27 8 -16 9 13 1
16 6 12 19 -5 15 -4 14 9 -2 12 -16 17 -17 30 -6z m-175 -6 c0 -2 -12 -4 -27
-4 -21 0 -24 3 -14 9 13 8 41 5 41 -5z m100 -5 c0 -5 -4 -9 -10 -9 -5 0 -10 7
-10 16 0 8 5 12 10 9 6 -3 10 -10 10 -16z m-240 1 c0 -5 -4 -10 -10 -10 -5 0
-10 5 -10 10 0 6 5 10 10 10 6 0 10 -4 10 -10z m104 -24 c-3 -8 2 -16 13 -19
10 -3 6 -4 -9 -4 -16 1 -28 2 -28 3 0 11 14 34 21 34 4 0 6 -6 3 -14z m156 -7
c0 -5 -4 -7 -10 -4 -5 3 -10 1 -10 -6 0 -7 -3 -10 -6 -6 -8 7 4 27 17 27 5 0
9 -5 9 -11z m48 2 c10 -6 10 -11 -4 -21 -19 -17 -44 -22 -44 -9 0 5 9 9 20 9
22 0 27 15 8 23 -7 3 -8 6 -3 6 6 0 16 -3 23 -8z m-591 -27 c-2 -14 2 -31 10
-40 13 -12 12 -14 -1 -14 -9 0 -16 -5 -16 -12 0 -9 -3 -9 -12 0 -7 7 -20 12
-29 12 -10 0 -21 5 -24 10 -4 6 -3 10 2 9 19 -3 33 2 33 12 0 6 -7 9 -15 5 -8
-3 -15 -2 -15 3 0 5 11 12 25 15 14 4 25 11 25 16 0 6 5 10 11 10 7 0 9 -10 6
-26z m144 -49 c2 -5 -11 -11 -30 -13 -28 -3 -33 -1 -27 14 4 10 -1 25 -11 37
-16 18 -13 17 23 -4 23 -13 43 -28 45 -34z m306 1 c9 -8 2 -10 -32 -8 -26 3
-46 10 -49 18 -5 12 1 14 32 8 20 -3 42 -11 49 -18z m83 9 c0 -8 5 -15 10 -15
6 0 10 4 10 9 0 5 8 11 18 13 13 4 18 -1 20 -16 1 -15 -1 -17 -7 -7 -6 9 -11
10 -15 2 -11 -17 -34 -13 -46 9 -7 14 -7 20 0 20 5 0 10 -7 10 -15z m228 -1
c-16 -16 -101 -27 -92 -12 3 4 14 8 24 8 10 0 22 5 25 10 3 6 18 10 33 10 24
0 25 -1 10 -16z m-123 -14 c3 -5 2 -10 -4 -10 -5 0 -13 5 -16 10 -3 6 -2 10 4
10 5 0 13 -4 16 -10z m-662 -27 c10 -6 9 -33 -1 -33 -5 0 -22 11 -38 25 l-29
26 30 -7 c17 -4 33 -9 38 -11z m514 3 c18 2 35 0 38 -5 3 -5 15 -7 28 -4 17 4
19 2 7 -6 -8 -5 -12 -13 -8 -16 3 -4 18 6 33 22 15 15 24 22 20 14 -6 -11 -3
-13 13 -9 27 7 28 0 5 -18 -17 -13 -17 -13 2 -14 11 0 31 -3 45 -6 23 -5 24
-4 8 9 -28 22 -21 37 17 37 26 0 35 -4 36 -17 1 -17 2 -17 6 0 5 18 29 22 50
9 9 -5 1 -12 -22 -21 -19 -7 -35 -17 -35 -22 0 -5 -8 -9 -17 -7 -10 2 -18 -1
-18 -7 -3 -46 -51 -68 -96 -44 -16 8 -29 7 -53 -5 -24 -11 -41 -13 -65 -6 -40
11 -113 84 -105 104 7 17 42 25 64 15 8 -4 29 -5 47 -3z m-122 -6 c-3 -5 -14
-10 -23 -10 -15 0 -15 2 -2 10 20 13 33 13 25 0z m855 -2 c0 -5 -12 -8 -26 -8
-14 0 -23 -4 -19 -10 3 -5 -1 -10 -9 -10 -19 0 -21 11 -5 27 12 12 59 12 59 1z
m-1034 -11 c4 -12 11 -12 45 -1 51 18 122 1 145 -34 15 -23 15 -24 -8 -16 -12
5 -89 9 -169 9 -126 0 -150 3 -166 18 -11 9 -25 17 -31 17 -7 0 -12 4 -12 9 0
5 43 9 95 10 73 1 97 -2 101 -12z m-243 -18 l22 -20 -24 9 c-14 5 -27 14 -29
20 -6 18 6 14 31 -9z m967 11 c9 -5 19 -5 27 1 9 8 156 7 201 -1 1 0 -7 -9
-19 -21 -16 -16 -38 -21 -105 -26 -78 -6 -84 -5 -84 13 0 13 -3 15 -8 6 -6 -8
-30 -12 -73 -11 -36 1 -75 -2 -87 -5 -12 -4 -22 -3 -22 2 0 35 130 67 170 42z
m327 -6 c-3 -3 -12 -4 -19 -1 -8 3 -5 6 6 6 11 1 17 -2 13 -5z m-52 -24 c-3
-5 -13 -10 -21 -10 -8 0 -14 5 -14 10 0 6 9 10 21 10 11 0 17 -4 14 -10z
m-472 -35 c-3 -9 -8 -14 -10 -11 -3 3 -2 9 2 15 9 16 15 13 8 -4z m64 -1 c-3
-3 -12 -4 -19 -1 -8 3 -5 6 6 6 11 1 17 -2 13 -5z m13 -24 c0 -5 -4 -10 -10
-10 -5 0 -10 5 -10 10 0 6 5 10 10 10 6 0 10 -4 10 -10z m-151 -27 c9 3 24 8
34 12 17 7 18 4 12 -35 -3 -23 -10 -52 -14 -64 -5 -11 -7 -39 -5 -61 1 -22 -2
-45 -8 -52 -7 -9 -7 -13 1 -13 7 0 11 -22 11 -60 l0 -60 -32 0 c-24 0 -29 3
-21 11 14 14 6 39 -13 39 -12 0 -19 -19 -15 -42 0 -5 -4 -8 -10 -8 -6 0 -9 9
-6 19 5 20 -18 38 -28 22 -3 -5 -14 -7 -25 -4 -31 8 -23 -6 11 -20 31 -12 30
-13 -34 -15 -76 -3 -86 8 -67 78 8 31 16 40 33 40 21 1 21 2 4 14 -12 10 -17
26 -16 57 0 24 -2 59 -6 77 -5 24 -4 32 6 32 9 1 8 4 -3 11 -29 17 -20 24 25
21 23 -1 53 4 67 11 21 12 29 12 54 0 15 -8 36 -13 45 -10z m136 -213 c4 -6
-5 -10 -19 -10 -14 0 -26 5 -26 10 0 6 9 10 19 10 11 0 23 -4 26 -10z m276
-66 c17 -15 20 -15 44 0 22 15 25 15 25 1 0 -9 -8 -19 -17 -22 -21 -8 -48 -35
-56 -56 -9 -23 -39 -22 -35 1 2 12 -5 18 -24 20 -36 4 -35 14 3 46 36 31 37
31 60 10z m-333 -86 c11 -18 25 -51 30 -73 5 -22 13 -49 17 -60 6 -17 4 -17
-14 4 -29 32 -26 20 9 -42 36 -64 39 -87 10 -80 -11 3 -17 10 -13 17 3 6 2 8
-2 3 -5 -4 -17 0 -27 10 -26 23 -22 9 6 -21 13 -15 29 -26 35 -26 7 0 10 -4 6
-9 -3 -5 -1 -12 4 -15 5 -4 11 1 13 10 4 22 67 -84 90 -153 10 -31 26 -68 35
-82 11 -17 13 -26 5 -29 -7 -2 -12 -10 -12 -19 0 -13 2 -12 15 1 12 12 22 13
42 5 15 -5 34 -7 42 -4 9 3 5 -4 -9 -15 -14 -11 -31 -20 -38 -20 -7 0 -20 -7
-29 -16 -12 -12 -18 -13 -27 -3 -8 8 -8 13 1 16 14 5 13 7 -54 82 -24 27 -43
56 -43 65 0 9 -11 27 -25 39 -14 12 -31 44 -39 70 -13 45 -13 48 2 42 12 -4
10 0 -5 14 -47 45 -60 95 -60 246 0 77 3 126 7 109 4 -18 16 -47 28 -66z m52
57 c27 -15 20 -19 -17 -9 -13 4 -23 10 -23 15 0 12 11 11 40 -6z m-357 -87
c-1 -72 -5 -85 -22 -97 -12 -7 -21 -18 -21 -24 0 -5 9 -2 20 8 11 10 22 16 24
14 10 -10 -26 -71 -44 -76 -12 -3 -19 -11 -16 -19 3 -8 0 -11 -8 -8 -7 3 -21
-4 -31 -16 -10 -12 -13 -20 -6 -20 8 0 7 -7 -3 -22 -7 -13 -17 -36 -20 -51 -4
-17 -11 -25 -18 -21 -7 5 -8 3 -3 -5 4 -7 -1 -22 -12 -34 -28 -31 -63 -95 -63
-115 -1 -20 -26 -68 -34 -65 -4 2 -13 8 -20 15 -19 17 0 44 19 28 9 -8 15 -8
20 0 3 5 -1 10 -9 10 -18 0 -19 6 -7 46 5 16 17 56 26 89 27 90 95 199 95 151
0 -10 5 -14 10 -11 6 4 8 14 5 24 -3 10 6 32 20 51 14 19 25 44 25 56 0 38 54
174 70 174 3 0 4 -37 3 -82z m334 56 c-3 -3 -12 -4 -19 -1 -8 3 -5 6 6 6 11 1
17 -2 13 -5z m-217 -17 c0 -16 -48 -84 -79 -111 l-21 -19 0 71 0 72 50 0 c35
0 50 -4 50 -13z m45 -12 c0 -14 -3 -25 -7 -25 -5 0 -8 11 -8 25 0 14 3 25 8
25 4 0 7 -11 7 -25z m93 -69 c2 -79 1 -88 -12 -77 -29 25 -68 116 -60 145 5
23 11 27 38 24 l31 -3 3 -89z m-118 54 c0 -5 -5 -10 -11 -10 -5 0 -7 5 -4 10
3 6 8 10 11 10 2 0 4 -4 4 -10z m-4 -35 c4 -8 -1 -37 -10 -64 -9 -28 -16 -71
-16 -97 0 -56 -19 -124 -35 -124 -6 0 -17 6 -24 13 -11 10 -13 10 -7 0 4 -7 2
-13 -5 -13 -8 0 -10 13 -6 43 4 23 1 67 -5 98 l-12 57 50 50 c54 55 62 59 70
37z m44 -9 c0 -8 16 -37 35 -65 l35 -51 -15 -54 c-9 -30 -15 -58 -14 -62 6
-32 -3 -41 -38 -41 l-38 0 1 111 c1 166 2 176 19 176 8 0 15 -6 15 -14z m190
4 c0 -5 -2 -10 -4 -10 -3 0 -8 5 -11 10 -3 6 -1 10 4 10 6 0 11 -4 11 -10z
m40 -50 c0 -21 -4 -28 -14 -24 -21 8 -29 36 -14 46 22 13 28 9 28 -22z m365
-32 c3 -3 27 -3 53 0 l47 4 -2 -96 -2 -97 -40 -48 c-22 -26 -60 -66 -85 -89
-39 -36 -50 -41 -73 -36 -15 4 -33 7 -40 7 -7 0 -13 4 -13 7 0 4 -15 11 -32
15 -32 7 -33 7 -8 15 23 6 22 8 -15 15 -22 5 -34 10 -27 12 17 6 15 30 -4 37
-8 3 -13 10 -10 15 4 5 -8 21 -24 35 l-31 25 21 21 c15 15 17 20 5 20 -32 0
-13 20 24 26 31 5 48 16 76 50 23 27 51 48 78 57 40 13 92 16 102 5z m-312
-125 c-7 -2 -19 -2 -25 0 -7 3 -2 5 12 5 14 0 19 -2 13 -5z m-887 -54 c-6 -56
-20 -68 -36 -28 -12 29 -12 33 11 50 13 10 25 19 26 19 2 0 1 -19 -1 -41z
m492 -37 c8 -5 15 -50 21 -124 5 -63 13 -124 20 -135 9 -18 7 -21 -14 -25 -20
-4 -25 -1 -25 14 0 10 -6 29 -14 41 -22 34 -31 71 -15 62 9 -6 11 -3 6 9 -4
10 -7 24 -7 32 0 8 -6 11 -15 8 -12 -5 -15 4 -15 48 0 67 21 93 58 70z m-485
-49 c8 -32 7 -83 -1 -83 -10 0 -77 69 -71 72 53 33 66 35 72 11z m367 13 c0
-3 -4 -8 -10 -11 -5 -3 -10 -1 -10 4 0 6 5 11 10 11 6 0 10 -2 10 -4z m-32
-39 c-2 -13 1 -28 8 -34 21 -20 -16 -109 -41 -99 -17 6 -29 -26 -20 -54 9 -27
-21 -38 -43 -16 -11 11 -12 16 -4 16 8 0 12 9 10 23 -2 17 5 25 30 36 30 14
37 27 33 61 -7 65 -7 80 3 84 23 9 28 5 24 -17z m-338 -80 c0 -5 -4 -5 -10 -2
-5 3 -10 1 -10 -4 0 -14 -27 -14 -35 -1 -3 6 -3 19 0 30 6 19 7 19 30 2 14 -9
25 -21 25 -25z m713 26 c14 -17 13 -18 -16 -19 -18 -1 -24 1 -14 3 20 5 23 19
5 26 -8 3 -8 6 -2 6 6 1 18 -7 27 -16z m317 -32 c0 -4 -11 -6 -25 -3 -14 2
-25 6 -25 8 0 2 11 4 25 4 14 0 25 -4 25 -9z m190 -21 c-6 -11 -8 -20 -4 -20
4 0 -3 -11 -16 -25 -25 -26 -45 -32 -55 -15 -7 11 17 40 33 40 5 0 17 9 27 20
10 11 20 20 22 20 2 0 -1 -9 -7 -20z m-671 -128 c8 -15 4 -17 -31 -17 -39 0
-39 0 -18 17 12 10 26 18 31 18 4 0 13 -8 18 -18z m268 2 c-3 -3 -12 -4 -19
-1 -8 3 -5 6 6 6 11 1 17 -2 13 -5z"/>
<path d="M745 2050 c3 -5 11 -10 16 -10 6 0 7 5 4 10 -3 6 -11 10 -16 10 -6 0
-7 -4 -4 -10z"/>
<path d="M844 2021 c20 -22 26 -25 26 -13 0 4 -10 13 -22 21 -23 14 -23 14 -4
-8z"/>
<path d="M980 1950 c8 -5 20 -10 25 -10 6 0 3 5 -5 10 -8 5 -19 10 -25 10 -5
0 -3 -5 5 -10z"/>
<path d="M1191 1874 c-7 -8 -11 -17 -10 -18 8 -7 49 14 49 24 0 15 -23 12 -39
-6z"/>
<path d="M1295 1830 c3 -5 11 -10 16 -10 6 0 7 5 4 10 -3 6 -11 10 -16 10 -6
0 -7 -4 -4 -10z"/>
<path d="M1720 1861 c0 -4 11 -6 25 -3 14 2 25 6 25 8 0 2 -11 4 -25 4 -14 0
-25 -4 -25 -9z"/>
<path d="M1287 1751 c-3 -11 0 -22 7 -24 6 -3 12 6 12 19 2 29 -12 32 -19 5z"/>
<path d="M1230 1641 c0 -6 5 -13 10 -16 6 -3 10 1 10 9 0 9 -4 16 -10 16 -5 0
-10 -4 -10 -9z"/>
<path d="M1290 1635 c0 -8 5 -15 10 -15 6 0 10 7 10 15 0 8 -4 15 -10 15 -5 0
-10 -7 -10 -15z"/>
<path d="M1356 1641 c-4 -7 -5 -15 -2 -18 9 -9 19 4 14 18 -4 11 -6 11 -12 0z"/>
<path d="M1285 1600 c-3 -5 -2 -10 4 -10 5 0 13 5 16 10 3 6 2 10 -4 10 -5 0
-13 -4 -16 -10z"/>
<path d="M1290 1571 c0 -6 5 -13 10 -16 6 -3 10 1 10 9 0 9 -4 16 -10 16 -5 0
-10 -4 -10 -9z"/>
<path d="M1346 1555 c-9 -26 -7 -32 5 -12 6 10 9 21 6 23 -2 3 -7 -2 -11 -11z"/>
<path d="M1220 1516 c0 -2 8 -10 18 -17 15 -13 16 -12 3 4 -13 16 -21 21 -21
13z"/>
<path d="M1355 1500 c-3 -5 -1 -10 4 -10 6 0 11 5 11 10 0 6 -2 10 -4 10 -3 0
-8 -4 -11 -10z"/>
<path d="M1553 1016 c17 -30 34 -53 35 -51 5 5 -47 94 -59 100 -5 3 6 -19 24
-49z"/>
<path d="M1591 940 c0 -8 6 -28 14 -45 l14 -30 -6 30 c-7 38 -22 68 -22 45z"/>
<path d="M1570 922 c6 -13 14 -21 18 -18 3 4 -2 14 -12 24 -18 16 -18 16 -6
-6z"/>
<path d="M1063 1215 c-26 -39 -27 -45 -13 -45 6 0 10 5 10 11 0 6 9 24 21 40
11 16 17 29 12 29 -4 0 -18 -16 -30 -35z"/>
<path d="M1350 1361 c0 -6 4 -13 10 -16 6 -3 7 1 4 9 -7 18 -14 21 -14 7z"/>
<path d="M1237 1203 c-4 -3 -7 -11 -7 -17 0 -6 5 -5 12 2 6 6 9 14 7 17 -3 3
-9 2 -12 -2z"/>
<path d="M1200 1102 c0 -5 7 -15 15 -22 8 -7 15 -9 15 -6 0 4 -7 14 -15 22 -8
9 -15 11 -15 6z"/>
<path d="M1322 1200 c-16 -25 -15 -69 1 -103 15 -33 22 -34 23 -2 1 14 -2 23
-6 20 -14 -9 -22 53 -10 75 15 28 8 35 -8 10z"/>
<path d="M1935 2190 c10 -11 20 -20 23 -20 3 0 -3 9 -13 20 -10 11 -20 20 -23
20 -3 0 3 -9 13 -20z"/>
<path d="M570 2145 c0 -8 5 -15 10 -15 6 0 10 7 10 15 0 8 -4 15 -10 15 -5 0
-10 -7 -10 -15z"/>
<path d="M878 2153 c7 -3 16 -2 19 1 4 3 -2 6 -13 5 -11 0 -14 -3 -6 -6z"/>
<path d="M956 2151 c-4 -7 -5 -15 -2 -18 9 -9 19 4 14 18 -4 11 -6 11 -12 0z"/>
<path d="M1543 2153 c9 -2 25 -2 35 0 9 3 1 5 -18 5 -19 0 -27 -2 -17 -5z"/>
<path d="M1665 2150 c3 -5 8 -10 11 -10 2 0 4 5 4 10 0 6 -5 10 -11 10 -5 0
-7 -4 -4 -10z"/>
<path d="M1438 2083 c7 -3 16 -2 19 1 4 3 -2 6 -13 5 -11 0 -14 -3 -6 -6z"/>
<path d="M1865 1979 c-11 -16 -1 -19 13 -3 7 8 8 14 3 14 -5 0 -13 -5 -16 -11z"/>
<path d="M1638 1803 c7 -3 16 -2 19 1 4 3 -2 6 -13 5 -11 0 -14 -3 -6 -6z"/>
<path d="M1085 1780 c-3 -5 1 -10 9 -10 9 0 16 5 16 10 0 6 -4 10 -9 10 -6 0
-13 -4 -16 -10z"/>
<path d="M1050 1746 c0 -9 30 -14 35 -6 4 6 -3 10 -14 10 -12 0 -21 -2 -21 -4z"/>
<path d="M573 1570 c0 -41 2 -58 4 -37 2 20 2 54 0 75 -2 20 -4 3 -4 -38z"/>
<path d="M1500 1590 c0 -5 7 -10 16 -10 8 0 12 5 9 10 -3 6 -10 10 -16 10 -5
0 -9 -4 -9 -10z"/>
<path d="M2181 1574 c0 -11 3 -14 6 -6 3 7 2 16 -1 19 -3 4 -6 -2 -5 -13z"/>
<path d="M1078 1513 c6 -2 18 -2 25 0 6 3 1 5 -13 5 -14 0 -19 -2 -12 -5z"/>
<path d="M571 1474 c0 -11 3 -14 6 -6 3 7 2 16 -1 19 -3 4 -6 -2 -5 -13z"/>
<path d="M568 1353 c-2 -49 0 -117 3 -153 4 -45 6 -19 7 88 2 164 -5 207 -10
65z"/>
<path d="M2055 1129 c-4 -6 -5 -12 -2 -15 2 -3 7 2 10 11 7 17 1 20 -8 4z"/>
<path d="M1323 1006 c7 -14 13 -23 15 -21 7 6 -9 45 -18 45 -4 0 -3 -11 3 -24z"/>
<path d="M1332 860 c0 -14 2 -19 5 -12 2 6 2 18 0 25 -3 6 -5 1 -5 -13z"/>
<path d="M1331 695 c8 -7 149 -8 156 -1 4 3 -31 6 -77 6 -46 0 -81 -2 -79 -5z"/>
<path d="M1640 560 c-11 -8 -7 -9 15 -4 37 8 45 14 19 14 -10 0 -26 -5 -34
-10z"/>
<path d="M1711 544 c0 -11 3 -14 6 -6 3 7 2 16 -1 19 -3 4 -6 -2 -5 -13z"/>
<path d="M1525 478 l-40 -43 43 40 c39 36 47 45 39 45 -2 0 -21 -19 -42 -42z"/>
<path d="M634 486 c-3 -8 -4 -23 -1 -33 3 -12 5 -9 6 9 1 26 4 27 59 31 l57 3
-58 2 c-42 1 -59 -2 -63 -12z"/>
<path d="M1108 493 c6 -2 18 -2 25 0 6 3 1 5 -13 5 -14 0 -19 -2 -12 -5z"/>
<path d="M1674 478 l-19 -23 23 19 c21 18 27 26 19 26 -2 0 -12 -10 -23 -22z"/>
<path d="M1042 465 c0 -16 2 -22 5 -12 2 9 2 23 0 30 -3 6 -5 -1 -5 -18z"/>
<path d="M1704 429 c-3 -6 -1 -16 5 -22 9 -9 10 -7 5 7 -6 15 -4 17 6 11 9 -5
11 -4 6 3 -9 15 -13 15 -22 1z"/>
<path d="M1565 394 c-22 -13 -35 -24 -30 -24 6 0 28 11 50 25 22 13 36 24 30
24 -5 -1 -28 -12 -50 -25z"/>
<path d="M1791 400 c-13 -11 -19 -20 -14 -20 6 0 18 9 28 20 23 25 17 25 -14
0z"/>
<path d="M1889 393 l-24 -28 28 24 c25 23 32 31 24 31 -2 0 -14 -12 -28 -27z"/>
<path d="M1938 403 c7 -3 16 -2 19 1 4 3 -2 6 -13 5 -11 0 -14 -3 -6 -6z"/>
<path d="M832 358 c-2 -35 -6 -48 -19 -51 -17 -4 -17 -5 0 -6 22 -1 29 17 24
65 -3 38 -4 37 -5 -8z"/>
<path d="M1730 390 c-9 -6 -10 -10 -3 -10 6 0 15 5 18 10 8 12 4 12 -15 0z"/>
<path d="M632 370 c0 -14 2 -19 5 -12 2 6 2 18 0 25 -3 6 -5 1 -5 -13z"/>
<path d="M1674 368 l-19 -23 23 19 c21 18 27 26 19 26 -2 0 -12 -10 -23 -22z"/>
<path d="M1488 363 c6 -2 18 -2 25 0 6 3 1 5 -13 5 -14 0 -19 -2 -12 -5z"/>
<path d="M1624 328 l-19 -23 23 19 c21 18 27 26 19 26 -2 0 -12 -10 -23 -22z"/>
<path d="M1834 328 l-19 -23 23 19 c21 18 27 26 19 26 -2 0 -12 -10 -23 -22z"/>
<path d="M888 333 c7 -3 16 -2 19 1 4 3 -2 6 -13 5 -11 0 -14 -3 -6 -6z"/>
<path d="M1240 310 c-23 -7 -23 -8 -3 -9 12 -1 25 4 28 9 3 6 5 10 3 9 -2 -1
-14 -5 -28 -9z"/>
<path d="M1395 310 c-16 -7 -17 -9 -3 -9 9 -1 20 4 23 9 7 11 7 11 -20 0z"/>
<path d="M638 303 c23 -2 59 -2 80 0 20 2 1 4 -43 4 -44 0 -61 -2 -37 -4z"/>
<path d="M958 303 c6 -2 18 -2 25 0 6 3 1 5 -13 5 -14 0 -19 -2 -12 -5z"/>
<path d="M1098 303 c12 -2 30 -2 40 0 9 3 -1 5 -23 4 -22 0 -30 -2 -17 -4z"/>
<path d="M1834 288 l-19 -23 23 19 c12 11 22 21 22 23 0 8 -8 2 -26 -19z"/>
<path d="M1534 248 l-29 -33 35 30 c19 17 37 31 39 33 2 1 0 2 -5 2 -6 0 -23
-15 -40 -32z"/>
<path d="M1489 193 c-13 -16 -12 -17 4 -4 16 13 21 21 13 21 -2 0 -10 -8 -17
-17z"/>
<path d="M1499 103 l-24 -28 28 24 c15 14 27 26 27 28 0 8 -8 1 -31 -24z"/>
</g>
</svg>
